# xmcd
#
# Track frame offsets:
#	150
#	15755
#	44349
#	59983
#	73300
#	95330
#	126560
#	134025
#	151650
#	161100
#	188250
#	200000
#	211575
#	230800
#
# Disc length: 3396 seconds
# Revision: 1
# Processed by: cddbd v1.5.2PL0 Copyright (c) Steve Scherf et al.
# Submitted via: dBpowerAMP V12.0
#
DISCID=cb0d420e
DTITLE=Krzak - Blues Rock Band, Live: Calkiem Nieznane Nagrania
DYEAR=1979
DGENRE=Blues
TTITLE0=Kansas - Down The Road
TTITLE1=Blues E-Dur
TTITLE2=Iluzyt
TTITLE3=Ontario
TTITLE4=Przewrotna Samba
TTITLE5=Blues H-Moll - Smuteczek
TTITLE6=Łatka
TTITLE7=Czakuś
TTITLE8=Chwile Z B.
TTITLE9=Dla Fredka
TTITLE10=Skałki
TTITLE11=Lidek
TTITLE12=Dżemowa maszynka
TTITLE13=Winter Rock
EXTD=
EXTT0=
EXTT1=
EXTT2=
EXTT3=
EXTT4=
EXTT5=
EXTT6=
EXTT7=
EXTT8=
EXTT9=
EXTT10=
EXTT11=
EXTT12=
EXTT13=
PLAYORDER=
